<svg xmlns="http://www.w3.org/2000/svg" fill="none" viewBox="0 0 24 24" id="Android-Icon--Streamline-Svg-Logos" height="24" width="24">
  <desc>
    Android Icon Streamline Icon: https://streamlinehq.com
  </desc>
  <path fill="#34a853" d="M23.684375 18.325825c-0.0077 -0.0481 -0.015025 -0.09565 -0.02305 -0.1432 -0.048525 -0.29505 -0.108925 -0.58665 -0.1791 -0.87425 -0.12325 -0.502425 -0.27825 -0.9928 -0.4633 -1.467725 -0.1564 -0.4022 -0.33445 -0.79345 -0.53205 -1.172725 -0.254175 -0.48695 -0.5408 -0.954425 -0.857475 -1.399 -0.388225 -0.544825 -0.821825 -1.05525 -1.29525 -1.525575 -0.19865 -0.197675 -0.404275 -0.38845 -0.61655 -0.5712 -0.4598 -0.397 -0.951025 -0.758475 -1.468425 -1.0816 0.00455 -0.007475 0.008375 -0.015475 0.012925 -0.02295 0.23705 -0.409575 0.4748 -0.81865 0.71185 -1.22825 0.231825 -0.3999 0.46365 -0.799775 0.695475 -1.199625 0.166875 -0.287025 0.3334 -0.574625 0.49925 -0.86165 0.03945 -0.068175 0.070525 -0.138625 0.0939 -0.2108 0.06495 -0.2011 0.06775 -0.4125 0.015725 -0.609025 -0.013275 -0.04865 -0.029325 -0.0962 -0.048875 -0.1426 -0.01955 -0.04645 -0.04225 -0.091675 -0.0681 -0.135225 -0.088675 -0.148925 -0.2154 -0.278425 -0.3746 -0.372975 -0.1407 -0.0836 -0.29815 -0.133475 -0.45945 -0.147775 -0.067725 -0.005725 -0.1358 -0.005175 -0.20355 0.0017 -0.05585 0.005725 -0.11135 0.016075 -0.166525 0.030375 -0.1962 0.052125 -0.37845 0.159825 -0.5202 0.31565 -0.050975 0.05615 -0.09705 0.11805 -0.1365 0.1862 -0.166525 0.287 -0.333075 0.574625 -0.49925 0.861625l-0.69545 1.199625c-0.237075 0.40965 -0.474825 0.818675 -0.711875 1.2283 -0.02585 0.04465 -0.052025 0.08935 -0.07785 0.134625 -0.035975 -0.01435 -0.071575 -0.02865 -0.10755 -0.042425 -1.307125 -0.4984 -2.725275 -0.771075 -4.20765 -0.771075 -0.0405 0 -0.08065 0 -0.1215 0.000575 -1.31795 0.01315 -2.584225 0.242325 -3.765675 0.65365 -0.1365 0.04755 -0.2716 0.097975 -0.405675 0.1507 -0.0241 -0.041825 -0.048875 -0.08365 -0.072625 -0.125475 -0.23705 -0.40965 -0.4748 -0.818675 -0.71185 -1.2283 -0.231825 -0.39985 -0.46365 -0.79975 -0.695475 -1.199625 -0.166875 -0.287025 -0.3334 -0.5746 -0.49925 -0.861625 -0.0398 -0.068175 -0.085525 -0.13005 -0.1365 -0.186175 -0.14175 -0.15585 -0.324 -0.26355 -0.5202 -0.315675 -0.055175 -0.014325 -0.110675 -0.024625 -0.166875 -0.03035 -0.0674 -0.006875 -0.135475 -0.007475 -0.2032 -0.00175 -0.1613 0.01375 -0.31875 0.063625 -0.4598 0.147825 -0.1592 0.0945 -0.284875 0.224 -0.37425 0.372925 -0.02585 0.04355 -0.0489 0.088825 -0.0681 0.135225 -0.01955 0.0464 -0.0363 0.09395 -0.048875 0.14265 -0.052 0.1965 -0.049225 0.4079 0.015375 0.608975 0.023725 0.0722 0.05445 0.14265 0.0939 0.21085 0.1669 0.287025 0.333425 0.5746 0.49925 0.8616 0.232175 0.3999 0.464 0.799775 0.695825 1.199625 0.23705 0.40965 0.47445 0.818675 0.7115 1.2283 0.00175 0.003425 0.0042 0.006875 0.00595 0.0103 -0.4783 0.29735 -0.933225 0.62675 -1.36265 0.987075 -0.2573 0.216025 -0.505175 0.442275 -0.742575 0.678875 -0.473075 0.47035 -0.90635 0.9808 -1.295265 1.525625 -0.317005 0.444575 -0.6039875 0.91145 -0.8574525 1.399 -0.197605 0.379275 -0.37566 0.770525 -0.5320675 1.172725 -0.1850375 0.474925 -0.3400475 0.9653 -0.46329 1.467725 -0.070175 0.2876 -0.129875 0.57865 -0.1791025 0.87425 -0.00803 0.04755 -0.01536 0.09565 -0.0226925 0.1432 -0.0265325 0.171325 -0.0488775 0.34375 -0.06773 0.51735h23.5c-0.01885 -0.1736 -0.0412 -0.346025 -0.067375 -0.51735l0.00175 -0.00115Z" stroke-width="0.25"></path>
  <path fill="#202124" d="M18.1126 15.594175c0.470275 -0.313025 0.5387 -1.03725 0.15255 -1.617525 -0.385775 -0.580325 -1.079825 -0.79695 -1.54975 -0.483925 -0.470275 0.31305 -0.5387 1.03725 -0.152575 1.617525 0.385775 0.580325 1.07985 0.797 1.549775 0.483925Z" stroke-width="0.25"></path>
  <path fill="#202124" d="M7.45775 15.11235c0.38615 -0.580325 0.3177 -1.3045 -0.15255 -1.617525 -0.470275 -0.313075 -1.164 -0.0964 -1.550125 0.483875 -0.3858 0.580325 -0.31735 1.3045 0.152575 1.61755 0.47025 0.31305 1.164325 0.096375 1.5501 -0.4839Z" stroke-width="0.25"></path>
</svg>