<svg xmlns="http://www.w3.org/2000/svg" fill="none" viewBox="0 0 24 24" id="Apple--Streamline-Svg-Logos" height="24" width="24">
  <desc>
    Apple Streamline Icon: https://streamlinehq.com
  </desc>
  <path fill="#000000" d="M18.41345 12.7348c0.033025 3.5563 3.119825 4.73975 3.154025 4.75485 -0.0261 0.083475 -0.493225 1.686525 -1.626275 3.342375 -0.979475 1.431575 -1.996025 2.8579 -3.597425 2.887425 -1.573525 0.029 -2.079475 -0.9331 -3.878475 -0.9331 -1.798425 0 -2.3606 0.903575 -3.8501 0.9621 -1.54575 0.0585 -2.7228 -1.54805 -3.710425 -2.974375C2.886725 17.8565 1.3445 12.529675 3.4153 8.933975c1.02875 -1.78565 2.867175 -2.916375 4.8626 -2.945375 1.5179 -0.02895 2.9506 1.021175 3.878475 1.021175 0.927325 0 2.66835 -1.262875 4.49865 -1.0774 0.7662 0.031875 2.917 0.3095 4.298075 2.33105 -0.111275 0.068975 -2.566325 1.4982 -2.53965 4.471375Zm-2.95725 -8.732675C16.27685 3.008775 16.8292 1.6259225 16.6785 0.25c-1.182875 0.0475425 -2.613275 0.78825 -3.46175 1.7810625 -0.760375 0.8791875 -1.4263 2.2863625 -1.246625 3.6350625 1.318475 0.102 2.6654 -0.67 3.486075 -1.664Z" stroke-width="0.25"></path>
</svg>