<svg xmlns="http://www.w3.org/2000/svg" viewBox="0 0 576 512" fill="#7952B3"><path d="M333.5,201.4c0-22.1-15.6-34.3-43-34.3h-50.4v71.2h42.5C315.4,238.2,333.5,225,333.5,201.4z M304.7,238.4h-24.1v-70.6h24c21.4,0,33.4,10.1,33.4,33.1C338,227.1,326.1,238.4,304.7,238.4z M410.6,157.1h-76.2v217.3h76.2c57.4,0,87.3-27.4,87.3-108.9C497.9,184.6,468,157.1,410.6,157.1z M410.6,345.6h-45.5V186h45.5c38.4,0,58.6,18.8,58.6,79.7C469.2,326.9,449,345.6,410.6,345.6z M576,141.2v229.5c0,25-20.4,45.4-45.4,45.4H45.4C20.4,416.1,0,395.7,0,370.7V141.2C0,116.2,20.4,95.8,45.4,95.8h485.3C555.6,95.8,576,116.2,576,141.2z"/></svg>
