<svg xmlns="http://www.w3.org/2000/svg" fill="none" viewBox="0 0 96 96" id="Browserstack--Streamline-Svg-Logos" height="24" width="24">
  <desc>
    Browserstack Streamline Icon: https://streamlinehq.com
  </desc>
  <path fill="#f5bb60" d="M48.0511 95.0002c25.9293 0 46.9491-21.0198 46.9491-46.9491 0-25.9292-21.0198-46.94905-46.9491-46.94905-25.9292 0-46.94905 21.01985-46.94905 46.94905 0 25.9293 21.01985 46.9491 46.94905 46.9491Z"></path>
  <path fill="#e86f32" d="M43.2644 85.5287c23.3419 0 42.2643-18.9224 42.2643-42.2643C85.5287 19.9224 66.6063 1 43.2644 1 19.9224 1 1 19.9224 1 43.2644c0 23.3419 18.9224 42.2643 42.2644 42.2643Z"></path>
  <path fill="#e53d42" d="M48.8657 74.3261c20.2484 0 36.663-16.4146 36.663-36.663C85.5287 17.4146 69.1141 1 48.8657 1 28.6172 1 12.2026 17.4146 12.2026 37.6631c0 20.2484 16.4146 36.663 36.6631 36.663Z"></path>
  <path fill="#bfd141" d="M51.819 74.326c18.6173 0 33.7097-15.0923 33.7097-33.7096S70.4363 6.90674 51.819 6.90674 18.1094 21.9991 18.1094 40.6164 33.2017 74.326 51.819 74.326Z"></path>
  <path fill="#6db64c" d="M49.3748 74.3263c17.2674 0 31.2655-13.998 31.2655-31.2655 0-17.2674-13.9981-31.2654-31.2655-31.2654s-31.2654 13.998-31.2654 31.2654c0 17.2675 13.998 31.2655 31.2654 31.2655Z"></path>
  <path fill="#afdbe7" d="M44.3846 64.4478c14.5113 0 26.2751-11.7638 26.2751-26.2752 0-14.5113-11.7638-26.2751-26.2751-26.2751-14.5114 0-26.2752 11.7638-26.2752 26.2751 0 14.5114 11.7638 26.2752 26.2752 26.2752Z"></path>
  <path fill="#57badf" d="M48.6619 55.7911c12.1491 0 21.9978-9.8488 21.9978-21.9979 0-12.149-9.8487-21.9978-21.9978-21.9978-12.1491 0-21.9978 9.8488-21.9978 21.9978 0 12.1491 9.8487 21.9979 21.9978 21.9979Z"></path>
  <path fill="#02b2d6" d="M51.4115 55.8928c10.6866 0 19.3499-8.6633 19.3499-19.35 0-10.6867-8.6633-19.3499-19.3499-19.3499-10.6867 0-19.35 8.6632-19.35 19.3499 0 10.6867 8.6633 19.35 19.35 19.35Z"></path>
  <path fill="url(#a)" d="M48.5599 55.7907c9.1118 0 16.4984-7.3866 16.4984-16.4984s-7.3866-16.4984-16.4984-16.4984-16.4984 7.3866-16.4984 16.4984 7.3866 16.4984 16.4984 16.4984Z"></path>
  <path fill="#231f20" d="M48.5599 55.7907c9.1118 0 16.4984-7.3866 16.4984-16.4984s-7.3866-16.4984-16.4984-16.4984-16.4984 7.3866-16.4984 16.4984 7.3866 16.4984 16.4984 16.4984Z"></path>
  <path fill="#ffffff" d="M52.8931 37.1311c1.6357.7339 3.8915-.743 5.0384-3.2989 1.1468-2.5559.7505-5.2229-.8853-5.9569s-3.8916.743-5.0384 3.2989c-1.1469 2.5559-.7505 5.2229.8853 5.9569Z"></path>
  <defs>
    <radialGradient id="a" cx="0" cy="0" r="1" gradientTransform="translate(1686.54 1672.73) scale(1653.76)" gradientUnits="userSpaceOnUse">
      <stop stop-color="#797979"></stop>
      <stop offset="1" stop-color="#4c4c4c"></stop>
    </radialGradient>
  </defs>
</svg>