<svg xmlns="http://www.w3.org/2000/svg" fill="none" viewBox="0 0 24 24" id="Datadog-Icon--Streamline-Svg-Logos" height="24" width="24">
  <desc>
    Datadog Icon Streamline Icon: https://streamlinehq.com
  </desc>
  <path fill="#632ca6" d="m19.412275 16.93435 -1.95485 -1.28965 -1.630775 2.724125 -1.8967 -0.55445 -1.670025 2.548925 0.08555 0.802225 9.080525 -1.67335 -0.527425 -5.6738 -1.4863 3.115975Zm-8.467925 -2.445975 1.45705 -0.20035c0.235575 0.105925 0.39965 0.146275 0.68225 0.21815 0.440375 0.114425 0.949625 0.22445 1.7041 -0.155575 0.17555 -0.087025 0.541475 -0.421475 0.689275 -0.612225l5.968975 -1.0826 0.6089 7.36975 -10.226475 1.842975 -0.884075 -7.380125Zm11.0876 -2.6556 -0.589275 0.112225L20.3108 0.25 1.0234375 2.486335 3.399775 21.768875l2.257825 -0.327775c-0.180375 -0.257425 -0.461125 -0.5689 -0.9404 -0.967425 -0.664825 -0.552225 -0.43 -1.490775 -0.0374 -2.083375 0.5189 -1.001125 3.19265 -2.273375 3.04115 -3.8734 -0.05445 -0.58185 -0.14665 -1.3389 -0.68705 -1.858175 -0.02035 0.21555 0.0163 0.4226 0.0163 0.4226s-0.22185 -0.282975 -0.332225 -0.668525c-0.109625 -0.14815 -0.195925 -0.1952 -0.3126 -0.392975 -0.083325 0.228525 -0.072225 0.493725 -0.072225 0.493725s-0.181475 -0.428525 -0.21075 -0.7904c-0.1074 0.16185 -0.134425 0.469275 -0.134425 0.469275s-0.235575 -0.675575 -0.181875 -1.03965c-0.1074 -0.316675 -0.4263 -0.9452 -0.3363 -2.373375 0.588525 0.412225 1.884475 0.31445 2.3893 -0.429625 0.167425 -0.246675 0.2826 -0.919275 -0.0837 -2.245225 -0.235175 -0.850025 -0.817425 -2.115975 -1.04445 -2.59635l-0.02705 0.019625c0.119625 0.38705 0.3663 1.1978 0.461125 1.591525 0.286675 1.1926 0.363325 1.608175 0.2289 2.158175 -0.11445 0.47815 -0.3889 0.79075 -1.084475 1.1404 -0.695575 0.350725 -1.618925 -0.502975 -1.677075 -0.550025 -0.675925 -0.538525 -1.1989 -1.416675 -1.25705 -1.843725 -0.06075 -0.46705 0.269275 -0.747425 0.435575 -1.129275 -0.23815 0.067775 -0.50335 0.188875 -0.50335 0.188875s0.316675 -0.327775 0.70705 -0.6111c0.16185 -0.10705 0.256675 -0.1752 0.42705 -0.316675 -0.246675 -0.004075 -0.44705 0.00295 -0.44705 0.00295s0.411475 -0.222225 0.8378 -0.384075c-0.311875 -0.0137 -0.61075 -0.002225 -0.61075 -0.002225s0.91815 -0.41075 1.642975 -0.71185c0.498525 -0.20445 0.985575 -0.1441 1.259275 0.25185 0.359275 0.518525 0.7367 0.8 1.536325 0.97445 0.491125 -0.217775 0.640025 -0.32925 1.257075 -0.497775 0.542975 -0.597425 0.969275 -0.67445 0.969275 -0.67445s-0.2115 0.194075 -0.26815 0.498875c0.307775 -0.242575 0.645175 -0.445175 0.645175 -0.445175s-0.130725 0.1611 -0.252575 0.4174l0.028125 0.042225c0.359275 -0.21555 0.7815 -0.385175 0.7815 -0.385175s-0.120725 0.152575 -0.262225 0.35c0.271125 -0.002225 0.8204 0.011475 1.033725 0.03555 1.2589 0.027775 1.520025 -1.3440975 2.003 -1.5163225 0.604825 -0.2159275 0.8752 -0.3466725 1.90595 0.6659475 0.8841 0.869625 1.575225 2.425225 1.231875 2.77375 -0.287775 0.28925 -0.8552 -0.112975 -1.4841 -0.8967 -0.332225 -0.415175 -0.5837 -0.905925 -0.7015 -1.52965 -0.09925 -0.5263 -0.485925 -0.8314925 -0.485925 -0.8314925s0.224075 0.5000175 0.224075 0.9403925c0 0.24075 0.03 1.140375 0.41595 1.645575 -0.03815 0.0737 -0.05595 0.3652 -0.09815 0.421125 -0.4489 -0.5426 -1.413 -0.93075 -1.5704 -1.0452 0.532225 0.435925 1.7552 1.437425 2.22485 2.3978 0.44445 0.9078 0.1826 1.74005 0.4074 1.955225 0.064075 0.061475 0.955575 1.172625 1.127075 1.730775 0.29925 0.9726 0.017775 1.995225 -0.373725 2.6293l-1.093725 0.170375c-0.16 -0.04445 -0.267775 -0.066675 -0.4111 -0.149625 0.07925 -0.14 0.2363 -0.4889 0.237775 -0.561125l-0.06185 -0.10815c-0.340375 0.482225 -0.9104 0.950375 -1.3841 1.219275 -0.620025 0.3515 -1.334475 0.29705 -1.799675 0.15335 -1.32 -0.40705 -2.56855 -1.2993 -2.869675 -1.53375 0 0 -0.00925 0.18705 0.047425 0.229275 0.3326 0.37555 1.0952 1.05445 1.832625 1.528175l-1.571525 0.17295 0.742975 5.784175c-0.32925 0.04705 -0.38075 0.070375 -0.741125 0.1215 -0.317775 -1.122625 -0.925575 -1.8556 -1.590025 -2.28265 -0.585925 -0.376675 -1.3941 -0.461475 -2.16745 -0.30815l-0.049625 0.057775c0.5378 -0.055925 1.172625 0.021875 1.82485 0.434825 0.640025 0.404825 1.15595 1.4504 1.34595 2.079675 0.24335 0.80445 0.4115 1.6652 -0.243325 2.57745 -0.465575 0.648525 -1.82485 1.006675 -2.9234 0.231475 0.29335 0.471875 0.68965 0.857425 1.223725 0.930025 0.7926 0.107775 1.54485 -0.03 2.062625 -0.5615 0.441875 -0.45445 0.676675 -1.404825 0.614825 -2.4056l0.69965 -0.101475 0.2526 1.796325 11.579825 -1.39445 -0.944825 -9.216475ZM14.986625 6.95455c-0.0322 0.0737 -0.083325 0.122225 -0.007025 0.362225l0.00445 0.013725 0.012225 0.0311 0.03185 0.07185c0.1374 0.281125 0.28815 0.54595 0.54075 0.6815 0.065175 -0.011125 0.13295 -0.018525 0.20295 -0.02185 0.23705 -0.010375 0.386675 0.027025 0.481125 0.07815 0.008525 -0.047425 0.010375 -0.1163 0.0052 -0.21815 -0.018525 -0.35595 0.07035 -0.961125 -0.613725 -1.27965 -0.25815 -0.11965 -0.620375 -0.082975 -0.741125 0.06665 0.02185 0.002975 0.041475 0.007425 0.05705 0.0126 0.18295 0.063325 0.05925 0.1263 0.026275 0.20185Zm1.917825 3.3208c-0.089625 -0.049625 -0.5089 -0.03 -0.803725 0.0052 -0.561475 0.066275 -1.1678 0.260725 -1.3004 0.36445 -0.241475 0.18665 -0.13185 0.51185 0.046675 0.64555 0.500375 0.373725 0.9389 0.62445 1.4015 0.56335 0.2841 -0.0374 0.534825 -0.487425 0.71225 -0.895575 0.121475 -0.281125 0.121475 -0.58445 -0.0563 -0.682975ZM11.933625 7.394925c0.15815 -0.150375 -0.788525 -0.347775 -1.52335 0.15335 -0.541875 0.369625 -0.559275 1.162225 -0.040375 1.6115 0.05185 0.04445 0.0948 0.075925 0.13445 0.10185 0.151475 -0.071475 0.324075 -0.143325 0.52295 -0.207775 0.335575 -0.1089 0.614825 -0.165175 0.8441 -0.195175 0.109625 -0.1226 0.2374 -0.338525 0.20555 -0.72965 -0.0437 -0.53075 -0.445175 -0.446675 -0.143325 -0.7341Z" stroke-width="0.25"></path>
</svg>