<svg xmlns="http://www.w3.org/2000/svg" viewBox="0 0 32 32" fill="#000000"><path d="M32 24.795c-1.164.296-1.884.013-2.53-.957l-4.594-6.356-.664-.88-5.365 7.257c-.613.873-1.256 1.253-2.4.944l6.87-9.222-6.396-8.33c1.1-.214 1.86-.105 2.535.88l4.765 6.435 4.8-6.4c.615-.873 1.276-1.205 2.38-.883l-2.48 3.288-3.36 4.375c-.4.5-.345.842.023 1.325L32 24.795zM.008 15.427l.975-5.291c.623-3.388 3.173-5.391 6.903-5.391 3.316 0 5.735 1.66 5.735 4.787 0 2.312-1.09 3.83-2.237 4.697 1.76.87 3.474 2.433 3.474 5.17 0 3.715-3.11 6.18-7.594 6.18-4.265 0-7.065-2.372-7.065-6.18 0-1.283.132-2.493.41-4.167.9-5.01 1.305-7.263 1.305-7.263.07-.39.284-.933-.096-1.293-.38-.36-.905-.39-1.296-.39H.01zm3.57.718c-.76.41-.684.831-.78 1.293l-.516 2.79c-.696 3.81-.624 4.383-.624 5.005 0 2.406 1.834 3.922 4.305 3.922 2.656 0 4.664-1.59 4.664-3.996 0-2.29-1.306-3.83-3.957-3.83-.327 0-.83.043-1.266.146-.313.073-.537.05-.758-.183-.22-.232-.214-.524-.06-.724.463-.6 1.243-1.485 1.83-2.206.818-.995 1.675-1.923 1.675-3.55 0-1.631-1.244-2.61-3.038-2.61-2.892 0-3.997 2.08-4.475 4.9z"/></svg>
