<svg xmlns="http://www.w3.org/2000/svg" viewBox="0 0 512 512" fill="#D33833"><path d="M487.1 425c-1.4-11.2-19-23.1-28.2-31.9-5.1-5-29-23.1-30.4-29.9-1.4-6.6 9.7-21.5 13.3-28.9 5.1-10.7 8.8-23.7 11.3-32.6 18.8-66.1-20.7-112.3-64.6-131.4-21.9-9.5-45.4-8.6-52.5-9.3-4.1-.4-8.2-2.2-12.2-5.2-15.8-11.7-27.7-27.1-42.7-43.1-1.6-1.7-8-6.5-15.4-6.5-13.2 0-15.5 12.6-16.9 18.7-5.1 22.8-10.6 25.6-10.6 25.6-10 13.9-85.9 126.8-85.9 126.8-7.1 10.5-13.3 21.5-13.7 28.1-.8 15.3 9.4 41.1 36.2 49.9 26.8 8.8 52.6 1.5 68.8-11.4 15.9-12.6 20.7-35.7 20.7-35.7 10.1-29.4 23.2-84.9 23.2-84.9 8.7-32.5 13.7-33.7 13.7-33.7 3.6-3.5 9.1-8.7 15.6-13.9 11.5-9.2 23.6-14.9 39.4-11.8 5.5 1.1 11.4 2.8 17.8 5.1 6.5 2.3 12.9 5.4 18.9 9.7 2.2 1.6 4.4 3.3 6.4 5.1 25.1 22.8 36.4 52.2 28.5 81.2-1.7 6.3-4.1 12.2-7.1 17.7-8.7 15.9-21.8 27.9-21.8 27.9-23.1 20.1-42.5 17.5-42.5 17.5-12.8 1.1-16.8 2.8-16.8 2.8-22.4 10.9-45.3 29.8-57.6 46.7-10.5 14.3-13.6 24.9-13.6 24.9-.5 1.9-.9 3.9-1.3 5.8-.9 5.5-1.1 10.8-.5 15.7 8.3 69.6 94.9 66.4 94.9 66.4 28.3-.2 52.2-10.1 52.2-10.1 35.4-17.4 44.3-51.8 44.3-51.8 10.7-31.1 3.2-75.9 3.2-75.9zm-127.1-42.3c-12.8-4.1-28.8-7.2-38.9-16.4-18.5-16.8-26-58.9-1.7-74 3.2-2 6.5-3.5 9.9-4.5 9.7-2.7 18.7-1.6 27.5.3 4.3.9 8.5 2.2 12.6 3.8 5.3 2 10.6 4.3 15.8 6.8 9.2 4.4 15.9 9 23.1 14.9 0 0-12.2 54.9-23.4 69.1-3-.1-17.5 5.2-24.9 0zm127.4 33.3c-1 10.4-4.9 22.5-4.9 22.5-5.2 22.5-18.7 35.5-18.7 35.5-18.2 21.3-33.8 20.3-33.8 20.3-38.3 1.9-62.8-16.6-62.8-16.6-30-23.7-20.7-55.4-20.7-55.4 3.7-14.9 16.9-25.8 16.9-25.8 20-18 33.1-34.9 33.1-34.9 6.5-7.4 9.8-10.7 9.8-10.7 3.9-3.7 9-8.1 15.5-12.8 3.2-2.3 6.5-4.5 9.9-6.5 4.2-2.5 8.4-4.6 12.7-6.5 0 0 4.1 6.8 9.2 22.7 6.2 19.5 8 21.3 8 21.3 5 9.7 7.5 24.5 7.5 24.5l-1.7 16.4z"/></svg>
