<svg xmlns="http://www.w3.org/2000/svg" viewBox="0 0 448 512" fill="#47A248"><path d="M240 448v-12.6c68.4-12.6 121.7-69.4 121.7-141.9 0-22.5-5.3-44.2-14.7-63.9-4.9-10.3-9.1-14.8-11.3-20.1-8.1-20-7.1-50.3-7.1-70.9 0-10.3-.9-19.7-3.1-20-12.6 0-26.3 13.2-36.9 24.7-17.8 19.4-39.3 32.3-76.3 32.3-38.5 0-59.4-13.8-76.3-32.3-10.6-11.6-24.3-24.7-36.9-24.7-2.2.3-3.1 9.7-3.1 20 0 20.6 1 50.9-7.1 70.9-2.2 5.3-6.4 9.8-11.3 20.1-9.4 19.7-14.7 41.4-14.7 63.9 0 72.5 53.3 129.3 121.7 141.9V448c-25.2 0-97.2 7.6-97.2 48v16h200.2v-16c0-40.4-72-48-97.2-48zm-48-32c0 8.8-7.2 16-16 16s-16-7.2-16-16 7.2-16 16-16 16 7.2 16 16z"/></svg>
