<svg xmlns="http://www.w3.org/2000/svg" viewBox="0 0 32 32" fill="#00C7B7"><path d="M22.579 11.36c.151.077.303.151.454.227l-1.214 2.579-1.593-1.593 2.353-1.214zm-3.719 1.972l1.82 1.82-4.099 8.723-5.8-5.8 7.646-4.743h.433zm-8.342 5.191l5.343 5.343H8.342l2.176-5.343zm15.988-8.532c.151.077.303.151.454.227l-7.495 15.914h-3.794l9.66-15.914a2.81 2.81 0 0 1 1.175-.227zM16 5.647l2.579 2.579-2.579 1.366-2.579-2.579L16 5.647zM6.295 22.579l1.214-2.579 1.593 1.593-2.353 1.214c-.151-.077-.303-.151-.454-.227zm3.719-1.972l-1.82-1.82 4.099-8.723 5.8 5.8-7.646 4.743h-.433zm8.342-5.191l-5.343-5.343h7.126l-2.176 5.343h.393zm-9.66-8.532l7.495 15.914h3.794L10.325 7.1c-.151-.077-.303-.151-.454-.227-.454.077-.908.151-1.175.227zm-2.579 9.66l2.579-1.366 2.579 2.579-2.579 1.366-2.579-2.579zm9.66 15.914l-2.579-2.579 2.579-1.366 2.579 2.579-2.579 1.366zm9.66-15.914l-1.214 2.579-1.593-1.593 2.353-1.214c.151.077.303.151.454.227z"/></svg>
