<svg xmlns="http://www.w3.org/2000/svg" viewBox="0 0 256 256" fill="#2D4552"><path d="M219.1 222.6c-4 0-7.7-1.5-10.5-4.3-2.8-2.8-4.3-6.5-4.3-10.5 0-4 1.5-7.7 4.3-10.5 2.8-2.8 6.5-4.3 10.5-4.3 4 0 7.7 1.5 10.5 4.3 2.8 2.8 4.3 6.5 4.3 10.5 0 4-1.5 7.7-4.3 10.5-2.8 2.8-6.5 4.3-10.5 4.3zm-182.2 0c-4 0-7.7-1.5-10.5-4.3-2.8-2.8-4.3-6.5-4.3-10.5 0-4 1.5-7.7 4.3-10.5 2.8-2.8 6.5-4.3 10.5-4.3 4 0 7.7 1.5 10.5 4.3 2.8 2.8 4.3 6.5 4.3 10.5 0 4-1.5 7.7-4.3 10.5-2.8 2.8-6.5 4.3-10.5 4.3zm91.1-59.5c-4 0-7.7-1.5-10.5-4.3-2.8-2.8-4.3-6.5-4.3-10.5 0-4 1.5-7.7 4.3-10.5 2.8-2.8 6.5-4.3 10.5-4.3 4 0 7.7 1.5 10.5 4.3 2.8 2.8 4.3 6.5 4.3 10.5 0 4-1.5 7.7-4.3 10.5-2.8 2.8-6.5 4.3-10.5 4.3zm0-59.5c-4 0-7.7-1.5-10.5-4.3-2.8-2.8-4.3-6.5-4.3-10.5 0-4 1.5-7.7 4.3-10.5 2.8-2.8 6.5-4.3 10.5-4.3 4 0 7.7 1.5 10.5 4.3 2.8 2.8 4.3 6.5 4.3 10.5 0 4-1.5 7.7-4.3 10.5-2.8 2.8-6.5 4.3-10.5 4.3zm0-59.5c-4 0-7.7-1.5-10.5-4.3-2.8-2.8-4.3-6.5-4.3-10.5 0-4 1.5-7.7 4.3-10.5 2.8-2.8 6.5-4.3 10.5-4.3 4 0 7.7 1.5 10.5 4.3 2.8 2.8 4.3 6.5 4.3 10.5 0 4-1.5 7.7-4.3 10.5-2.8 2.8-6.5 4.3-10.5 4.3z"/></svg>
