<svg xmlns="http://www.w3.org/2000/svg" fill="none" viewBox="0 0 24 24" id="Slack-Icon--Streamline-Svg-Logos" height="24" width="24">
  <desc>
    Slack Icon Streamline Icon: https://streamlinehq.com
  </desc>
  <path fill="#e01e5a" d="M5.204125 15.1034c0 1.36475 -1.103025 2.467775 -2.4678 2.467775 -1.3647475 0 -2.46777 -1.103025 -2.46777 -2.467775 0 -1.36475 1.1030225 -2.467775 2.46777 -2.467775h2.4678v2.467775Zm1.233875 0c0 -1.36475 1.103025 -2.467775 2.467775 -2.467775 1.364775 0 2.4678 1.103025 2.4678 2.467775v6.16945c0 1.36475 -1.103025 2.467775 -2.4678 2.467775 -1.36475 0 -2.467775 -1.103025 -2.467775 -2.467775V15.1034Z" stroke-width="0.25"></path>
  <path fill="#36c5f0" d="M8.905925 5.19495c-1.36475 0 -2.467775 -1.103025 -2.467775 -2.467775 0 -1.3647525 1.103025 -2.467775 2.467775 -2.467775 1.36475 0 2.467775 1.1030225 2.467775 2.467775v2.467775h-2.467775Zm0 1.2526c1.36475 0 2.467775 1.103025 2.467775 2.467775 0 1.36475 -1.103025 2.467775 -2.467775 2.467775H2.717775C1.3530225 11.3831 0.25 10.280075 0.25 8.915325c0 -1.36475 1.1030225 -2.467775 2.467775 -2.467775h6.18815Z" stroke-width="0.25"></path>
  <path fill="#2eb67d" d="M18.795675 8.915325c0 -1.36475 1.103025 -2.467775 2.467775 -2.467775 1.36475 0 2.467775 1.103025 2.467775 2.467775 0 1.36475 -1.103025 2.467775 -2.467775 2.467775h-2.467775v-2.467775Zm-1.2339 0c0 1.36475 -1.103025 2.467775 -2.467775 2.467775 -1.36475 0 -2.467775 -1.103025 -2.467775 -2.467775V2.727175c0 -1.3647525 1.103025 -2.467775 2.467775 -2.467775 1.36475 0 2.467775 1.1030225 2.467775 2.467775v6.18815Z" stroke-width="0.25"></path>
  <path fill="#ecb22e" d="M15.094 18.805075c1.36475 0 2.467775 1.103025 2.467775 2.467775 0 1.36475 -1.103025 2.467775 -2.467775 2.467775 -1.36475 0 -2.467775 -1.103025 -2.467775 -2.467775v-2.467775h2.467775Zm0 -1.2339c-1.36475 0 -2.467775 -1.103025 -2.467775 -2.467775 0 -1.36475 1.103025 -2.467775 2.467775 -2.467775h6.18815c1.36475 0 2.467775 1.103025 2.467775 2.467775 0 1.36475 -1.103025 2.467775 -2.467775 2.467775H15.094Z" stroke-width="0.25"></path>
</svg>